<svg width="30" height="30" viewBox="0 0 30 30" fill="none" xmlns="http://www.w3.org/2000/svg">
<path fill-rule="evenodd" clip-rule="evenodd" d="M4.28533 0.541992C2.12068 0.541992 0.548511 1.93001 0.548511 3.83904C0.548511 5.75474 2.15811 7.20388 4.28533 7.20388C6.44998 7.20388 8.02215 5.78906 8.02215 3.79993C7.92234 1.88423 6.38136 0.541992 4.28533 0.541992ZM1.16624 8.54538C0.823138 8.54538 0.542419 8.84575 0.542419 9.21287V28.5702C0.542419 28.9373 0.823138 29.2376 1.16624 29.2376H7.40442C7.74752 29.2376 8.02824 28.9373 8.02824 28.5702V9.21287C8.02824 8.84575 7.74752 8.54538 7.40442 8.54538H1.16624ZM9.8997 9.21287C9.8997 8.84575 10.1804 8.54538 10.5235 8.54538H16.7617C17.1048 8.54538 17.3855 8.84575 17.3855 9.21287V10.2076C18.3899 9.45333 20.0486 8.54538 22.2445 8.54538C27.0728 8.54538 29.2381 12.9041 29.2381 17.2228V28.5702C29.2381 28.9373 28.9574 29.2376 28.6143 29.2376H22.9999C22.6555 29.2376 22.3761 28.9386 22.3761 28.5702V18.224C22.3761 16.6421 21.2403 15.3535 19.7931 15.2333C19.7199 15.2203 19.6471 15.2203 19.5739 15.2203H19.5689H19.5639C19.4907 15.2203 19.4179 15.2203 19.3447 15.2333C17.8974 15.3535 16.7617 16.6421 16.7617 18.224V18.3909V18.5578V28.5702C16.7617 28.9386 16.4822 29.2376 16.1379 29.2376H10.5235C10.1804 29.2376 9.8997 28.9373 9.8997 28.5702V9.21287Z" fill="white"/>
</svg>
