<svg width="30" height="25" viewBox="0 0 30 25" fill="none" xmlns="http://www.w3.org/2000/svg">
<path fill-rule="evenodd" clip-rule="evenodd" d="M29.3949 3.77206C28.3354 4.25067 27.1967 4.57272 26.001 4.72033C27.2187 3.97334 28.1595 2.79696 28.5992 1.39245C27.4561 2.08129 26.19 2.58226 24.8447 2.85063C23.7677 1.68319 22.2334 0.954102 20.532 0.954102C17.27 0.954102 14.6234 3.64682 14.6234 6.96575C14.6234 7.43541 14.6762 7.89612 14.7773 8.33447C9.86663 8.08399 5.51432 5.68649 2.59959 2.04998C2.08962 2.94009 1.79947 3.97334 1.79947 5.07816C1.79947 7.16256 2.84138 9.00094 4.42844 10.0789C3.45686 10.0476 2.54683 9.77924 1.75111 9.32747C1.75111 9.35431 1.75111 9.37667 1.75111 9.40351C1.75111 12.3154 3.78658 14.7442 6.49029 15.2989C5.99351 15.4375 5.47475 15.5091 4.93401 15.5091C4.55153 15.5091 4.18225 15.4733 3.82175 15.4017C4.57352 17.7858 6.75407 19.5303 9.33908 19.575C7.32119 21.1897 4.77135 22.1469 2.00169 22.1469C1.5225 22.1469 1.0565 22.1201 0.594887 22.0664C3.20627 23.7706 6.31444 24.7636 9.65121 24.7636C20.5188 24.7636 26.4626 15.603 26.4626 7.66353C26.4626 7.39963 26.4582 7.14019 26.445 6.88076C27.6012 6.03985 28.6036 4.97976 29.3949 3.77206Z" fill="white"/>
</svg>
